<svg xmlns="http://www.w3.org/2000/svg" xmlns:xlink="http://www.w3.org/1999/xlink" version="1.1" x="0px" y="0px" viewBox="0 0 100 125" enable-background="new 0 0 100 100" xml:space="preserve"><g><path d="M74.998,59.48c-2.624,0.938-5.373,1.415-8.171,1.415c-13.371,0-24.25-10.879-24.25-24.25c0-3.394,0.692-6.683,2.059-9.776   c0.202-0.457,0.112-0.99-0.229-1.356c-0.341-0.367-0.868-0.496-1.336-0.325c-10.609,3.796-17.737,13.918-17.737,25.188   c0,14.75,12,26.75,26.75,26.75c10.591,0,20.199-6.267,24.479-15.964c0.202-0.457,0.112-0.99-0.229-1.356   C75.992,59.439,75.466,59.31,74.998,59.48z M52.084,74.626c-13.371,0-24.25-10.879-24.25-24.25c0-9.259,5.308-17.664,13.461-21.72   c-0.809,2.576-1.218,5.252-1.218,7.989c0,14.75,12,26.75,26.75,26.75c2.083,0,4.143-0.239,6.15-0.714   C68.653,70.019,60.729,74.626,52.084,74.626z"/><path d="M50.948,35.227c1.622,0.407,3.623,1.107,4.015,1.498c0.393,0.392,1.096,2.392,1.506,4.013   c0.112,0.444,0.512,0.755,0.97,0.755h0.001c0.458,0,0.857-0.312,0.969-0.756c0.408-1.622,1.108-3.623,1.5-4.016   c0.391-0.392,2.39-1.095,4.012-1.505c0.444-0.112,0.755-0.513,0.755-0.971s-0.312-0.857-0.756-0.969   c-1.622-0.408-3.623-1.108-4.016-1.5c-0.392-0.391-1.095-2.39-1.506-4.013c-0.113-0.443-0.512-0.754-0.97-0.754h-0.001   c-0.458,0.001-0.857,0.313-0.969,0.756c-0.407,1.622-1.107,3.623-1.499,4.016c-0.391,0.392-2.39,1.095-4.013,1.506   c-0.443,0.113-0.754,0.513-0.754,0.971C50.193,34.716,50.505,35.115,50.948,35.227z M56.375,33.193   c0.384-0.385,0.745-1.097,1.056-1.874c0.313,0.776,0.675,1.488,1.061,1.873c0.385,0.384,1.097,0.745,1.874,1.056   c-0.776,0.313-1.488,0.675-1.873,1.061c-0.384,0.385-0.745,1.097-1.057,1.874c-0.312-0.776-0.674-1.488-1.06-1.873   c-0.385-0.384-1.097-0.745-1.874-1.056C55.278,33.941,55.99,33.579,56.375,33.193z"/><path d="M60.311,50.641c-0.222,0.056-0.377,0.256-0.377,0.484c0,0.229,0.156,0.429,0.378,0.485c1.157,0.29,2.97,0.882,3.374,1.285   c0.405,0.405,1,2.216,1.293,3.373c0.056,0.222,0.256,0.377,0.484,0.377c0.229,0,0.429-0.156,0.485-0.378   c0.291-1.157,0.883-2.969,1.288-3.374c0.403-0.405,2.214-1,3.371-1.293c0.222-0.056,0.377-0.256,0.377-0.484   c0-0.229-0.156-0.429-0.378-0.485c-1.157-0.291-2.97-0.883-3.374-1.286c-0.405-0.404-1-2.216-1.294-3.373   c-0.056-0.222-0.256-0.377-0.484-0.377c-0.229,0-0.429,0.156-0.485,0.378c-0.29,1.157-0.882,2.97-1.285,3.374   C63.279,49.752,61.468,50.347,60.311,50.641z"/><path d="M69.509,38.074c0.735,0.185,1.677,0.513,1.852,0.687c0.176,0.176,0.505,1.116,0.691,1.851   c0.056,0.223,0.256,0.378,0.484,0.378c0.229,0,0.429-0.156,0.484-0.378c0.186-0.734,0.514-1.676,0.689-1.852   c0.175-0.176,1.115-0.505,1.851-0.691c0.222-0.056,0.377-0.256,0.377-0.484c0-0.229-0.156-0.429-0.378-0.484   c-0.734-0.186-1.676-0.514-1.852-0.688c-0.176-0.176-0.506-1.116-0.692-1.852c-0.056-0.222-0.256-0.377-0.484-0.377   c-0.229,0-0.429,0.156-0.485,0.378c-0.185,0.735-0.513,1.677-0.687,1.852c-0.176,0.176-1.116,0.506-1.852,0.692   c-0.222,0.056-0.377,0.256-0.377,0.484C69.131,37.818,69.287,38.018,69.509,38.074z"/></g><text x="0" y="115" fill="#000000" font-size="5px" font-weight="bold" font-family="'Helvetica Neue', Helvetica, Arial-Unicode, Arial, Sans-serif">Created by 선주 김</text><text x="0" y="120" fill="#000000" font-size="5px" font-weight="bold" font-family="'Helvetica Neue', Helvetica, Arial-Unicode, Arial, Sans-serif">from the Noun Project</text></svg>