<svg xmlns="http://www.w3.org/2000/svg" version="1.1" viewBox="-5.0 -10.0 110.0 135.0">
 <path d="m42.219 14.879-1.0859-6.1562c-0.14844-0.84766 0.41797-1.6602 1.2695-1.8086 0.84766-0.15234 1.6602 0.41797 1.8086 1.2695l1.0859 6.1562c0.14844 0.84766-0.41797 1.6602-1.2695 1.8086-0.089844 0.015624-0.18359 0.023437-0.27344 0.023437-0.74219 0-1.3984-0.53516-1.5352-1.293zm-12.25 7.1445c0.30078 0.46094 0.80078 0.71094 1.3125 0.71094 0.29297 0 0.58594-0.082031 0.84766-0.25 0.72266-0.46875 0.92969-1.4375 0.46094-2.1602l-5.957-9.1719c-0.47266-0.72656-1.4375-0.92969-2.1602-0.46094s-0.92969 1.4375-0.46094 2.1602zm-10.301 8.6445c0.27344 0.19141 0.58594 0.28125 0.89453 0.28125 0.49219 0 0.97656-0.23047 1.2812-0.66797 0.49609-0.70703 0.32422-1.6797-0.38281-2.1758l-5.1211-3.5859c-0.70703-0.49609-1.6797-0.32031-2.1758 0.38281-0.49609 0.70703-0.32422 1.6797 0.38281 2.1758zm37.152-12.762c0.10938 0.023438 0.21875 0.035156 0.32813 0.035156 0.72266 0 1.3711-0.50391 1.5273-1.2383l2.2734-10.699c0.17969-0.84375-0.35938-1.6758-1.2031-1.8516-0.84375-0.17969-1.6758 0.35938-1.8555 1.2031l-2.2734 10.699c-0.17578 0.83984 0.35937 1.6719 1.2031 1.8516zm22.012 14.934c0.29297 0 0.58594-0.082032 0.85156-0.25l9.1719-5.957c0.72266-0.47266 0.92969-1.4375 0.46094-2.1641-0.46875-0.72266-1.4375-0.92969-2.1641-0.46094l-9.1719 5.957c-0.72266 0.47266-0.92969 1.4375-0.46094 2.1641 0.29688 0.46094 0.80078 0.71094 1.3125 0.71094zm5.0195 11.191c0.13281 0.75781 0.79297 1.293 1.5352 1.293 0.089843 0 0.17969-0.007813 0.27344-0.023438l6.1562-1.0859c0.85156-0.14844 1.418-0.96094 1.2656-1.8086-0.14844-0.85156-0.96484-1.418-1.8086-1.2695l-6.1562 1.0859c-0.84766 0.14844-1.4141 0.95703-1.2656 1.8086zm-67.473 0.38281c0.72266 0 1.3711-0.50391 1.5273-1.2383 0.17969-0.84375-0.35938-1.6758-1.2031-1.8516l-10.699-2.2734c-0.84375-0.18359-1.6758 0.35938-1.8516 1.2031-0.17969 0.84375 0.35938 1.6758 1.2031 1.8516l10.699 2.2734c0.10547 0.027344 0.21484 0.035156 0.32422 0.035156zm54.234-22.289c0.49219 0 0.97656-0.23047 1.2812-0.66797l3.5859-5.1211c0.49609-0.70703 0.32422-1.6797-0.38281-2.1758-0.70312-0.49219-1.6797-0.32422-2.1758 0.38281l-3.5859 5.1211c-0.49609 0.70703-0.32422 1.6797 0.38281 2.1758 0.26953 0.19141 0.58203 0.28516 0.89453 0.28516zm-14.645 61.727c-0.85156 0.14844-1.418 0.96094-1.2656 1.8086l1.0859 6.1562c0.13281 0.75781 0.79297 1.293 1.5352 1.293 0.089843 0 0.17969-0.007813 0.27344-0.023437 0.85156-0.14844 1.418-0.96094 1.2656-1.8086l-1.0859-6.1562c-0.14844-0.85156-0.96094-1.4219-1.8086-1.2695zm-5.9961-2.5977c-6.4258 0-12.617-1.9531-17.898-5.6523-14.113-9.8828-17.559-29.41-7.6758-43.523 5.8438-8.3477 15.422-13.328 25.625-13.328 6.4258 0 12.613 1.9531 17.898 5.6523 14.117 9.8867 17.559 29.41 7.6719 43.523-5.8398 8.3438-15.418 13.328-25.621 13.328zm23.066-15.121c8.8945-12.703 5.7969-30.273-6.9062-39.172-4.7539-3.3281-10.324-5.0898-16.105-5.0898-9.1836 0-17.805 4.4844-23.066 11.996-8.8945 12.703-5.7969 30.273 6.9062 39.172 4.7539 3.3281 10.324 5.0898 16.105 5.0898 9.1836 0 17.805-4.4844 23.066-11.996zm7.2969 3.1992c-0.70313-0.49219-1.6797-0.32422-2.1758 0.38281-0.49609 0.70703-0.32422 1.6797 0.38281 2.1758l5.1211 3.5859c0.27344 0.19141 0.58594 0.28125 0.89453 0.28125 0.49219 0 0.97656-0.23047 1.2812-0.66797 0.49609-0.70703 0.32422-1.6797-0.38281-2.1758zm-10.301 8.6445c-0.46875-0.72266-1.4375-0.92969-2.1641-0.46094-0.72266 0.46875-0.92969 1.4375-0.46094 2.1602l5.957 9.1719c0.30078 0.46094 0.80078 0.71094 1.3125 0.71094 0.29297 0 0.58594-0.082032 0.85156-0.25 0.72266-0.46875 0.92969-1.4375 0.46094-2.1602zm24.613-20.082-10.699-2.2734c-0.84375-0.17969-1.6719 0.35938-1.8555 1.2031-0.17969 0.84375 0.35938 1.6758 1.2031 1.8516l10.699 2.2734c0.10938 0.023437 0.21875 0.035156 0.32812 0.035156 0.72266 0 1.3711-0.50391 1.5273-1.2383 0.17969-0.84375-0.35937-1.6758-1.2031-1.8516zm-78.5-1.9258c-0.14844-0.85156-0.96484-1.418-1.8086-1.2695l-6.1562 1.0859c-0.85156 0.14844-1.418 0.96094-1.2695 1.8086 0.13281 0.75781 0.79297 1.293 1.5391 1.293 0.089844 0 0.17969-0.007813 0.27344-0.023438l6.1562-1.0859c0.84766-0.14844 1.4141-0.95703 1.2656-1.8086zm4.1719 11.441-9.1719 5.957c-0.72266 0.46875-0.92969 1.4375-0.46094 2.1602 0.30078 0.46094 0.80078 0.71094 1.3125 0.71094 0.29297 0 0.58594-0.082031 0.84766-0.25l9.1719-5.957c0.72266-0.46875 0.92969-1.4375 0.46094-2.1602-0.46875-0.72656-1.4375-0.92969-2.1602-0.46094zm7.7852 11.133-3.5859 5.1211c-0.49609 0.70703-0.32422 1.6797 0.38281 2.1758 0.27344 0.19141 0.58594 0.28125 0.89453 0.28125 0.49219 0 0.97656-0.23047 1.2812-0.66797l3.5859-5.1211c0.49609-0.70703 0.32422-1.6797-0.38281-2.1758-0.70703-0.49219-1.6797-0.32031-2.1758 0.38672zm15.074 3.5508c-0.84766-0.17969-1.6758 0.35938-1.8516 1.2031l-2.2734 10.699c-0.17969 0.84375 0.35937 1.6758 1.2031 1.8516 0.10938 0.023438 0.21875 0.035156 0.32813 0.035156 0.72266 0 1.3711-0.50391 1.5273-1.2383l2.2734-10.699c0.17188-0.83984-0.36328-1.6719-1.207-1.8516z"/>
<text x="0.0" y="117.5" font-size="5.0" font-weight="bold" font-family="Arbeit Regular, Helvetica, Arial-Unicode, Arial, Sans-serif" fill="#000000">Created by Chehuna</text><text x="0.0" y="122.5" font-size="5.0" font-weight="bold" font-family="Arbeit Regular, Helvetica, Arial-Unicode, Arial, Sans-serif" fill="#000000">from Noun Project</text></svg>